<svg xmlns="http://www.w3.org/2000/svg" viewBox="0 0 1440 320"><path fill="#f3f4f5" fill-opacity="1" d="M0,64L34.3,90.7C68.6,117,137,171,206,202.7C274.3,235,343,245,411,218.7C480,192,549,128,617,90.7C685.7,53,754,43,823,74.7C891.4,107,960,181,1029,213.3C1097.1,245,1166,235,1234,208C1302.9,181,1371,139,1406,117.3L1440,96L1440,320L1405.7,320C1371.4,320,1303,320,1234,320C1165.7,320,1097,320,1029,320C960,320,891,320,823,320C754.3,320,686,320,617,320C548.6,320,480,320,411,320C342.9,320,274,320,206,320C137.1,320,69,320,34,320L0,320Z"></path></svg>